<?xml version="1.0" standalone="no"?>
<!DOCTYPE svg PUBLIC "-//W3C//DTD SVG 20010904//EN"
 "http://www.w3.org/TR/2001/REC-SVG-20010904/DTD/svg10.dtd">
<svg version="1.0" xmlns="http://www.w3.org/2000/svg"
 width="381.000000pt" height="480.000000pt" viewBox="0 0 381.000000 480.000000"
 preserveAspectRatio="xMidYMid meet">

<g transform="translate(0.000000,480.000000) scale(0.100000,-0.100000)"
fill="#000000" stroke="none">
<path d="M0 2400 l0 -2400 1905 0 1905 0 0 2400 0 2400 -1905 0 -1905 0 0
-2400z m1281 1920 c-3 -8 -5 -34 -5 -57 l-1 -43 -224 0 c-209 0 -226 -1 -261
-21 -35 -20 -40 -20 -60 -6 -26 18 -70 76 -70 92 0 16 46 36 105 45 28 4 156
7 285 6 204 -1 234 -3 231 -16z m622 -32 c-2 -24 -6 -49 -9 -56 -3 -10 -66
-12 -291 -10 l-288 3 -3 26 c-2 14 2 37 7 52 l11 27 289 0 289 0 -5 -42z m623
26 c-3 -9 -6 -33 -6 -55 l0 -39 -292 2 c-326 3 -314 0 -284 72 l15 36 287 0
c257 0 286 -2 280 -16z m602 -8 l42 -18 -47 -42 c-26 -22 -52 -39 -57 -36 -6
3 -121 7 -256 10 l-245 5 -3 29 c-2 15 -1 39 3 53 l6 24 257 -3 c222 -3 263
-6 300 -22z m-2483 -76 c3 -11 24 -35 46 -53 l39 -34 -10 -74 c-5 -41 -10
-125 -10 -186 0 -101 -2 -113 -17 -113 -27 1 -103 37 -109 53 -8 22 13 348 26
390 12 41 25 48 35 17z m2579 -9 c24 -45 36 -145 36 -293 l0 -136 -37 10 c-20
5 -49 8 -65 6 l-28 -5 0 138 c0 76 -5 162 -11 190 l-11 53 36 33 c44 40 61 41
80 4z m-1274 -416 c1 -60 5 -118 8 -127 6 -16 24 -10 150 52 l142 69 14 -27
c54 -105 455 -1036 449 -1044 -4 -8 -82 -9 -252 -5 -266 7 -361 -2 -437 -41
-50 -26 -83 -60 -63 -66 19 -6 582 -26 732 -26 64 0 117 -3 117 -7 0 -5 -33
-26 -72 -47 l-72 -39 84 -29 c96 -32 159 -35 245 -12 33 9 66 16 73 17 13 0
19 20 24 72 3 26 7 30 38 33 19 2 43 -3 53 -10 17 -13 17 -18 2 -113 -23 -145
-43 -220 -82 -306 l-34 -76 -48 26 -48 25 33 79 c28 65 31 78 17 71 -10 -4
-55 -9 -100 -12 -74 -4 -93 -1 -175 28 -123 43 -162 42 -268 -6 -73 -33 -95
-39 -155 -39 -62 0 -80 5 -160 44 -115 56 -163 57 -285 11 -114 -44 -189 -45
-280 -6 -42 18 -90 30 -135 33 -68 5 -72 4 -160 -42 -85 -45 -92 -47 -150 -42
-33 3 -89 18 -125 33 -54 23 -80 28 -152 29 -47 0 -89 -3 -93 -7 -4 -3 8 -46
25 -95 47 -132 47 -127 7 -146 -19 -10 -39 -17 -45 -17 -24 0 -87 185 -121
355 -33 172 -33 158 1 151 17 -3 43 -6 59 -6 24 0 28 -4 31 -32 2 -24 7 -32
18 -29 98 25 167 18 287 -30 86 -34 135 -37 183 -9 19 11 46 26 60 32 14 7 27
13 29 15 2 1 -33 41 -78 89 -44 48 -81 90 -81 93 0 4 57 1 128 -6 214 -20 612
-46 619 -40 12 13 -50 118 -94 157 -91 80 -210 119 -391 127 -125 6 -253 -6
-354 -32 -29 -8 -54 -13 -56 -11 -1 2 202 230 452 507 l456 504 0 57 c0 31 3
65 7 75 11 25 21 -64 23 -202z m-1244 -205 c-3 -69 -9 -187 -12 -264 l-7 -138
-49 4 c-28 3 -54 12 -59 19 -10 17 -11 188 -3 395 l7 149 64 -20 65 -20 -6
-125z m2524 159 l33 -12 -8 -271 c-4 -149 -8 -272 -8 -272 -1 -1 -28 1 -59 3
l-58 5 0 279 0 279 34 0 c18 0 48 -5 66 -11z m-6 -596 c18 -5 19 -13 12 -151
-7 -158 -24 -379 -31 -400 -4 -10 -10 -10 -24 -2 -11 5 -34 10 -52 10 -31 0
-32 1 -25 38 3 20 11 143 17 272 7 150 16 238 23 242 10 7 32 4 80 -9z m-2535
-10 c3 -2 8 -83 12 -181 8 -169 13 -237 25 -346 l6 -49 -48 6 c-73 8 -70 -1
-94 292 -5 66 -10 159 -10 207 l0 87 53 -6 c28 -3 54 -7 56 -10z m1331 -910
c-11 -14 -17 -30 -13 -34 9 -8 267 -79 288 -79 12 0 15 -17 15 -82 0 -46 -4
-89 -8 -95 -8 -12 -253 -86 -374 -113 -32 -7 -58 -17 -58 -22 0 -5 12 -25 26
-44 29 -37 20 -43 -29 -18 -56 29 -60 35 -38 56 13 12 18 24 13 36 -6 15 -7
14 -10 -5 -6 -38 -25 -45 -68 -24 -38 18 -122 45 -178 56 -21 4 -27 10 -23 23
36 114 47 192 27 192 -5 0 -10 -15 -10 -32 0 -18 -10 -66 -21 -105 -17 -57
-26 -73 -40 -73 -22 0 -22 8 -8 69 5 24 7 51 3 60 -4 10 -12 -9 -20 -48 -7
-36 -18 -69 -24 -75 -14 -14 -117 7 -185 39 -62 30 -87 64 -65 90 11 13 10 18
-5 29 -18 13 -17 14 6 29 13 8 69 31 125 50 55 19 121 48 147 65 64 40 127 57
180 47 63 -12 161 -7 257 14 117 25 115 25 90 -6z m873 -70 c4 -3 -23 -28 -59
-54 l-65 -47 46 -33 c30 -22 41 -35 33 -40 -22 -11 -146 -20 -152 -10 -3 4 -9
40 -12 79 l-7 70 54 15 c87 25 150 33 162 20z m118 -110 c16 -10 29 -24 29
-33 0 -20 -102 -171 -175 -260 -30 -36 -87 -98 -128 -139 l-75 -73 -46 27 -47
28 99 101 c101 103 200 228 249 316 31 55 47 60 94 33z m-1984 -257 c36 -48
103 -127 149 -176 l84 -88 -35 -31 c-20 -17 -39 -31 -44 -31 -12 0 -131 127
-203 218 -91 115 -202 295 -187 304 2 2 22 13 44 24 l39 21 44 -77 c24 -42 73
-116 109 -164z m1563 -250 c14 -6 25 -18 25 -26 0 -8 -38 -46 -85 -83 -92 -74
-338 -242 -371 -252 -13 -4 -29 2 -50 19 -17 14 -35 26 -40 26 -26 0 1 22 95
78 103 62 337 229 351 251 7 12 30 8 75 -13z m-1225 -100 c60 -49 229 -165
305 -207 22 -13 40 -27 40 -32 0 -11 -59 -67 -71 -67 -29 0 -355 225 -403 279
-19 21 -19 22 14 56 37 38 33 39 115 -29z m1771 -55 c-3 -39 -11 -82 -16 -97
-6 -15 -9 -29 -7 -31 3 -2 38 8 79 21 71 24 218 46 218 33 0 -3 -53 -48 -118
-100 -257 -204 -399 -353 -423 -439 -9 -37 -8 -49 11 -96 20 -47 21 -56 8 -68
-26 -26 -47 -8 -41 35 4 31 -2 51 -31 103 -32 58 -36 72 -36 139 0 53 -5 85
-19 112 -18 36 -18 37 4 84 24 51 70 99 177 182 66 51 178 166 178 183 0 4 5
8 11 8 9 0 10 -20 5 -69z m-2408 -15 c23 -29 95 -97 161 -150 89 -71 129 -111
152 -149 30 -51 30 -54 25 -149 -5 -100 -17 -134 -73 -220 -20 -29 -24 -47
-21 -82 2 -30 -1 -47 -9 -51 -19 -7 -43 5 -43 21 0 8 7 31 15 51 21 49 19 96
-6 146 -30 59 -239 262 -397 387 -129 101 -133 105 -102 108 41 4 181 -24 225
-45 19 -9 38 -14 41 -10 4 3 1 26 -5 51 -10 42 -16 146 -7 146 2 0 22 -24 44
-54z m1340 -186 c19 -11 32 -26 30 -32 -2 -6 -24 -23 -49 -37 l-45 -25 -57 24
c-31 13 -57 26 -57 29 0 11 95 59 120 60 14 0 40 -8 58 -19z m-171 -64 c68
-30 152 -72 188 -93 80 -46 69 -58 -49 -50 -87 5 -139 22 -273 90 l-83 41 37
38 c21 21 42 36 48 34 5 -3 65 -30 132 -60z m-492 -146 c127 -85 439 -270 457
-270 28 0 323 162 504 277 88 55 142 83 161 83 47 0 145 -21 178 -37 47 -25
54 -42 55 -123 1 -41 7 -92 14 -112 l14 -38 -57 0 c-110 -1 -247 -79 -592
-336 -122 -91 -228 -168 -236 -171 -20 -8 -126 66 -298 207 -165 135 -233 184
-313 224 -71 36 -167 59 -219 53 -24 -2 -42 -2 -40 2 27 50 41 101 47 169 8
102 20 117 116 142 38 9 71 18 73 19 2 0 63 -39 136 -89z m384 61 l54 -28 -46
-11 c-54 -14 -187 -16 -187 -3 0 12 92 71 110 70 8 0 39 -13 69 -28z m1031
-323 c21 -36 26 -73 10 -83 -5 -3 -27 7 -47 24 -21 17 -60 40 -88 52 -47 21
-48 23 -25 30 14 4 49 7 78 8 49 1 54 -1 72 -31z m-1637 -5 c5 -3 -17 -16 -49
-29 -32 -13 -77 -37 -100 -54 -23 -16 -45 -30 -48 -30 -10 0 -6 58 6 85 6 14
21 27 32 30 12 2 30 6 41 9 22 4 105 -3 118 -11z"/>
<path d="M1880 3738 c-98 -135 -140 -525 -81 -751 22 -83 70 -184 102 -213 19
-17 19 -7 19 494 0 282 -2 512 -5 512 -3 0 -18 -19 -35 -42z"/>
<path d="M1565 2485 c105 -41 143 -46 219 -28 l71 18 -85 6 c-47 4 -121 10
-165 13 l-80 7 40 -16z"/>
<path d="M1951 2471 c-8 -5 5 -7 35 -4 68 6 77 11 24 12 -25 0 -51 -3 -59 -8z"/>
<path d="M2155 2473 c21 -20 119 -53 155 -53 21 0 64 10 97 23 l60 22 -128 2
c-71 1 -143 4 -161 8 -21 5 -29 4 -23 -2z"/>
<path d="M1378 2463 c6 -2 18 -2 25 0 6 3 1 5 -13 5 -14 0 -19 -2 -12 -5z"/>
<path d="M808 2443 c7 -3 16 -2 19 1 4 3 -2 6 -13 5 -11 0 -14 -3 -6 -6z"/>
<path d="M750 2430 c0 -5 4 -10 9 -10 6 0 13 5 16 10 3 6 -1 10 -9 10 -9 0
-16 -4 -16 -10z"/>
<path d="M3050 2430 c-13 -8 -13 -10 2 -10 9 0 20 5 23 10 8 13 -5 13 -25 0z"/>
<path d="M1433 2423 c9 -2 23 -2 30 0 6 3 -1 5 -18 5 -16 0 -22 -2 -12 -5z"/>
<path d="M1988 2423 c12 -2 32 -2 45 0 12 2 2 4 -23 4 -25 0 -35 -2 -22 -4z"/>
<path d="M1378 2413 c7 -3 16 -2 19 1 4 3 -2 6 -13 5 -11 0 -14 -3 -6 -6z"/>
<path d="M1938 2413 c7 -3 16 -2 19 1 4 3 -2 6 -13 5 -11 0 -14 -3 -6 -6z"/>
<path d="M2583 2413 c9 -2 25 -2 35 0 9 3 1 5 -18 5 -19 0 -27 -2 -17 -5z"/>
<path d="M853 2403 c9 -2 25 -2 35 0 9 3 1 5 -18 5 -19 0 -27 -2 -17 -5z"/>
<path d="M1748 2403 c6 -2 18 -2 25 0 6 3 1 5 -13 5 -14 0 -19 -2 -12 -5z"/>
<path d="M2968 2403 c6 -2 18 -2 25 0 6 3 1 5 -13 5 -14 0 -19 -2 -12 -5z"/>
<path d="M798 2393 c7 -3 16 -2 19 1 4 3 -2 6 -13 5 -11 0 -14 -3 -6 -6z"/>
<path d="M2873 2393 c15 -2 39 -2 55 0 15 2 2 4 -28 4 -30 0 -43 -2 -27 -4z"/>
<path d="M760 2379 c0 -5 5 -7 10 -4 6 3 10 8 10 11 0 2 -4 4 -10 4 -5 0 -10
-5 -10 -11z"/>
<path d="M3050 2380 c-9 -6 -10 -10 -3 -10 6 0 15 5 18 10 8 12 4 12 -15 0z"/>
<path d="M1153 2373 c9 -2 25 -2 35 0 9 3 1 5 -18 5 -19 0 -27 -2 -17 -5z"/>
<path d="M1423 2373 c15 -2 39 -2 55 0 15 2 2 4 -28 4 -30 0 -43 -2 -27 -4z"/>
<path d="M1968 2373 c7 -3 16 -2 19 1 4 3 -2 6 -13 5 -11 0 -14 -3 -6 -6z"/>
<path d="M2308 2373 c12 -2 30 -2 40 0 9 3 -1 5 -23 4 -22 0 -30 -2 -17 -4z"/>
<path d="M1788 2363 c7 -3 16 -2 19 1 4 3 -2 6 -13 5 -11 0 -14 -3 -6 -6z"/>
<path d="M2638 2363 c7 -3 16 -2 19 1 4 3 -2 6 -13 5 -11 0 -14 -3 -6 -6z"/>
<path d="M3008 2363 c7 -3 16 -2 19 1 4 3 -2 6 -13 5 -11 0 -14 -3 -6 -6z"/>
<path d="M853 2353 c15 -2 39 -2 55 0 15 2 2 4 -28 4 -30 0 -43 -2 -27 -4z"/>
<path d="M1708 2353 c12 -2 32 -2 45 0 12 2 2 4 -23 4 -25 0 -35 -2 -22 -4z"/>
<path d="M2958 2353 c6 -2 18 -2 25 0 6 3 1 5 -13 5 -14 0 -19 -2 -12 -5z"/>
<path d="M770 2340 c0 -5 7 -7 15 -4 8 4 15 8 15 10 0 2 -7 4 -15 4 -8 0 -15
-4 -15 -10z"/>
<path d="M2883 2343 c9 -2 25 -2 35 0 9 3 1 5 -18 5 -19 0 -27 -2 -17 -5z"/>
<path d="M1168 2323 c7 -3 16 -2 19 1 4 3 -2 6 -13 5 -11 0 -14 -3 -6 -6z"/>
<path d="M2318 2323 c6 -2 18 -2 25 0 6 3 1 5 -13 5 -14 0 -19 -2 -12 -5z"/>
<path d="M3035 2320 c3 -5 8 -10 11 -10 2 0 4 5 4 10 0 6 -5 10 -11 10 -5 0
-7 -4 -4 -10z"/>
<path d="M1713 2303 c9 -2 23 -2 30 0 6 3 -1 5 -18 5 -16 0 -22 -2 -12 -5z"/>
<path d="M2948 2303 c6 -2 18 -2 25 0 6 3 1 5 -13 5 -14 0 -19 -2 -12 -5z"/>
<path d="M1696 2186 c3 -8 1 -24 -6 -35 -7 -13 -7 -21 -1 -21 15 0 32 36 25
54 -3 9 -10 16 -15 16 -4 0 -6 -6 -3 -14z"/>
<path d="M1767 2166 c3 -13 0 -27 -6 -30 -6 -4 -11 -12 -11 -18 0 -6 9 -3 20
7 23 21 25 38 6 54 -11 9 -12 7 -9 -13z"/>
<path d="M1847 2162 c2 -11 -1 -31 -8 -43 -12 -24 -12 -24 10 -5 25 22 27 39
7 55 -12 10 -13 9 -9 -7z"/>
<path d="M1920 2153 c0 -16 -6 -35 -12 -42 -11 -11 -9 -11 10 -2 23 12 31 54
12 66 -6 4 -10 -6 -10 -22z"/>
<path d="M2033 2145 c-6 -14 -7 -25 -2 -25 11 0 22 25 17 39 -1 6 -8 -1 -15
-14z"/>
<path d="M1980 2111 c0 -16 -4 -32 -9 -35 -5 -3 -7 -15 -4 -25 3 -10 0 -29 -7
-41 -11 -20 -10 -21 10 -10 18 9 21 18 16 41 -3 15 -1 31 4 34 13 8 13 52 0
60 -6 4 -10 -6 -10 -24z"/>
<path d="M2088 2116 c-3 -14 -2 -26 2 -26 12 0 19 26 10 39 -5 9 -9 4 -12 -13z"/>
<path d="M1645 2118 c4 -9 1 -26 -5 -38 -9 -18 -9 -21 1 -18 27 9 35 37 16 55
-16 16 -17 16 -12 1z"/>
<path d="M2148 2095 c-4 -20 -2 -23 8 -14 7 6 10 17 7 25 -7 20 -10 18 -15
-11z"/>
<path d="M1710 2089 c0 -14 -6 -31 -12 -38 -11 -10 -9 -12 7 -9 23 4 33 44 16
61 -8 8 -11 4 -11 -14z"/>
<path d="M1870 2081 c0 -11 -7 -27 -16 -35 -12 -13 -12 -16 -2 -16 31 0 52 50
28 65 -5 3 -10 -3 -10 -14z"/>
<path d="M2211 2093 c0 -6 -4 -20 -7 -30 -5 -14 -4 -15 5 -7 7 7 11 20 8 30
-3 11 -5 14 -6 7z"/>
<path d="M1780 2072 c0 -10 -5 -23 -12 -30 -7 -7 -8 -12 -2 -12 16 0 34 22 34
42 0 10 -4 18 -10 18 -5 0 -10 -8 -10 -18z"/>
<path d="M2024 2056 c-8 -27 -8 -33 2 -29 17 6 28 43 17 54 -5 5 -13 -6 -19
-25z"/>
<path d="M1920 2063 c0 -10 -7 -28 -15 -40 -8 -12 -17 -49 -19 -83 -3 -56 -2
-60 13 -46 13 13 13 20 4 36 -9 13 -9 21 -2 26 6 3 9 17 6 31 -3 16 1 27 14
34 20 10 26 44 9 54 -5 3 -10 -2 -10 -12z"/>
<path d="M2263 2055 c-6 -14 -7 -25 -2 -25 11 0 22 25 17 39 -1 6 -8 -1 -15
-14z"/>
<path d="M1343 2044 c-3 -8 1 -22 9 -30 19 -19 52 3 42 29 -8 21 -43 22 -51 1z"/>
<path d="M2067 2013 c-6 -34 -2 -41 11 -16 6 11 7 25 3 32 -6 9 -10 4 -14 -16z"/>
<path d="M2121 2023 c0 -6 -4 -20 -7 -30 -5 -14 -4 -15 5 -7 7 7 11 20 8 30
-3 11 -5 14 -6 7z"/>
<path d="M2158 2000 c-4 -24 -2 -27 9 -19 15 13 17 35 4 43 -5 3 -11 -8 -13
-24z"/>
<path d="M2208 1996 c-3 -14 -2 -26 2 -26 12 0 19 26 10 39 -5 9 -9 4 -12 -13z"/>
<path d="M2256 2007 c3 -9 0 -25 -7 -34 -12 -14 -12 -16 1 -11 19 6 25 37 10
52 -8 8 -10 7 -4 -7z"/>
<path d="M1648 1980 c-4 -24 -2 -27 9 -19 15 13 17 35 4 43 -5 3 -11 -8 -13
-24z"/>
<path d="M1708 1980 c-4 -24 -2 -27 9 -19 15 13 17 35 4 43 -5 3 -11 -8 -13
-24z"/>
<path d="M1768 1980 c-4 -24 -2 -27 9 -19 15 13 17 35 4 43 -5 3 -11 -8 -13
-24z"/>
<path d="M1828 1980 c-3 -19 -1 -29 6 -27 15 5 20 37 8 49 -6 6 -11 -1 -14
-22z"/>
<path d="M2058 1930 c-3 -19 -1 -29 6 -27 15 5 20 37 8 49 -6 6 -11 -1 -14
-22z"/>
<path d="M2118 1936 c-3 -14 -1 -26 4 -26 14 0 22 30 11 41 -7 7 -12 2 -15
-15z"/>
<path d="M2004 1942 c4 -6 2 -21 -4 -32 -9 -16 -8 -18 5 -14 18 7 20 40 3 50
-7 4 -8 3 -4 -4z"/>
<path d="M1951 1933 c0 -6 -4 -20 -7 -30 -5 -14 -4 -15 5 -7 7 7 11 20 8 30
-3 11 -5 14 -6 7z"/>
<path d="M1658 1906 c-3 -14 -2 -26 2 -26 12 0 19 26 10 39 -5 9 -9 4 -12 -13z"/>
<path d="M1774 1923 c4 -7 2 -22 -5 -34 -9 -17 -8 -20 3 -17 18 6 23 38 7 52
-9 8 -10 8 -5 -1z"/>
<path d="M1828 1906 c-3 -14 -1 -26 4 -26 14 0 22 30 11 41 -7 7 -12 2 -15
-15z"/>
<path d="M1718 1896 c-3 -14 -2 -26 2 -26 12 0 19 26 10 39 -5 9 -9 4 -12 -13z"/>
<path d="M2550 972 c-18 -14 -22 -25 -16 -45 6 -25 10 -27 57 -27 43 0 50 -3
47 -17 -2 -13 -14 -18 -38 -19 -51 -1 -54 -2 -40 -19 28 -34 110 -5 110 39 0
33 -19 46 -68 46 -50 0 -56 24 -6 26 45 2 47 3 34 19 -17 20 -53 19 -80 -3z"/>
<path d="M1195 958 c-12 -31 -35 -114 -35 -124 0 -15 76 -37 100 -29 20 6 35
39 25 55 -3 5 -1 19 5 30 17 32 3 58 -38 70 -47 13 -52 13 -57 -2z m56 -28
c26 -14 24 -30 -4 -30 -29 0 -37 7 -30 26 6 17 9 17 34 4z m4 -71 c14 -14 -10
-32 -34 -24 -12 4 -21 15 -21 26 0 16 4 19 23 14 12 -4 26 -11 32 -16z"/>
<path d="M2403 903 c-9 -3 -5 -18 14 -51 50 -90 54 -95 66 -83 8 8 2 28 -24
76 -18 36 -36 65 -39 64 -3 0 -11 -3 -17 -6z"/>
<path d="M1391 824 c-23 -37 -41 -67 -39 -69 25 -18 85 -55 90 -55 19 0 5 27
-22 43 -18 11 -27 23 -23 32 7 19 24 19 49 0 24 -18 34 -19 34 -1 0 7 -11 21
-25 30 -15 10 -22 22 -19 31 5 13 11 12 39 -5 38 -23 45 -25 45 -7 0 7 -10 18
-22 26 -13 8 -33 20 -44 28 -20 13 -24 10 -63 -53z"/>
<path d="M2235 800 c-6 -10 65 -130 78 -130 13 0 87 52 87 61 0 14 -23 11 -48
-7 -27 -19 -35 -14 -68 42 -26 44 -38 52 -49 34z"/>
<path d="M1556 712 c-25 -31 -46 -60 -46 -64 0 -19 27 -6 52 24 l27 33 -6 -56
c-3 -34 -1 -59 5 -63 11 -7 102 93 102 113 0 20 -20 12 -50 -21 -17 -18 -28
-26 -26 -18 2 8 7 34 10 56 9 64 -14 63 -68 -4z"/>
<path d="M2094 706 c-3 -8 2 -49 12 -91 18 -75 36 -93 42 -42 4 36 38 60 63
44 14 -8 21 -9 30 0 8 8 -5 22 -50 52 -76 52 -89 57 -97 37z m55 -49 c6 -8 8
-17 4 -20 -11 -12 -21 -7 -26 13 -6 23 5 26 22 7z"/>
<path d="M1962 618 c-7 -7 -12 -22 -12 -34 0 -12 -3 -30 -7 -39 -5 -15 -8 -15
-24 6 -14 19 -21 21 -30 12 -9 -9 -3 -25 31 -70 24 -32 45 -60 47 -62 2 -3 9
1 15 7 9 9 9 15 0 24 -7 7 -12 22 -12 34 0 22 1 23 36 8 36 -15 64 -13 64 4 0
5 -21 17 -46 27 -46 17 -46 18 -41 56 5 40 0 48 -21 27z"/>
<path d="M1719 591 c-36 -36 -38 -79 -6 -108 37 -34 60 -36 88 -7 l24 25 -25
19 c-34 26 -43 25 -36 -5 7 -27 -11 -34 -32 -13 -19 19 -14 42 12 67 29 27 63
21 68 -12 3 -25 31 -30 36 -6 4 24 -43 69 -73 69 -16 0 -38 -12 -56 -29z"/>
</g>
</svg>
